<svg width="2255" xmlns:ev="http://www.w3.org/2001/xml-events" viewBox="0 0 2255 804" height="804" xmlns="http://www.w3.org/2000/svg" xmlns:xlink="http://www.w3.org/1999/xlink"><style type="text/css"><![CDATA[
.st2 {fill:#1f6391;font-family:Arial;font-size:10pt}
.st1 {fill:#ffffff;font-family:Arial;font-size:10pt}
.st3 {text-decoration:underline}
]]></style><defs/><g transform="translate(5,5)" id="page1"><rect x="0" y="0" width="2245" stroke="#808080" height="794" fill="#ffffff"/><g transform="translate(1788,79)" id="table1"><g><path stroke="#2d85c1" d="M0,0L137,0L137,38L0,38L0,0z" fill="#3498db"/><text class="st1"><tspan x="53" y="23">Login</tspan></text></g><g><path stroke="#2d85c1" d="M0,38L137,38L137,137L0,137L0,38z" fill="#ffffff"/><text class="st2"><tspan x="44" y="59.5">#</tspan><tspan class="st3">user_id</tspan><tspan x="46" y="75.5">#role_id</tspan><tspan x="41" y="91.5">password</tspan><tspan x="18" y="107.5">security_question</tspan><tspan x="22" y="123.5">security_answer</tspan></text></g></g><g transform="translate(1553,80)" id="table2"><g><path stroke="#2d85c1" d="M0,0L137,0L137,41.1L0,41.1L0,0z" fill="#3498db"/><text class="st1"><tspan x="42" y="24.6">examiner</tspan></text></g><g><path stroke="#2d85c1" d="M0,41.1L137,41.1L137,137L0,137L0,41.1z" fill="#ffffff"/><text class="st2"><tspan x="30" y="69.1">#</tspan><tspan class="st3">examiner_id</tspan><tspan x="51" y="85.1">fname</tspan><tspan x="51" y="101.1">lname</tspan><tspan x="37" y="117.1">#gender_id</tspan></text></g></g><g transform="translate(1553,244)" id="table3"><g><path stroke="#2d85c1" d="M0,0L136,0L136,40.4L0,40.4L0,0z" fill="#3498db"/><text class="st1"><tspan x="47" y="24.2">student</tspan></text></g><g><path stroke="#2d85c1" d="M0,40.4L136,40.4L136,156L0,156L0,40.4z" fill="#ffffff"/><text class="st2"><tspan x="44" y="62.2">#</tspan><tspan class="st3">stud_id</tspan><tspan x="51" y="78.2">fname</tspan><tspan x="51" y="94.2">lname</tspan><tspan x="26" y="110.2">institute_name</tspan><tspan x="37" y="126.2">#gender_id</tspan><tspan x="58" y="142.2">dob</tspan></text></g></g><g transform="translate(1731,285.25)" id="table4"><g><path stroke="#2d85c1" d="M0,0L121,0L121,42.3L0,42.3L0,0z" fill="#3498db"/><text class="st1"><tspan x="38" y="25.1">e_group</tspan></text></g><g><path stroke="#2d85c1" d="M0,42.3L121,42.3L121,162.7L0,162.7L0,42.3z" fill="#ffffff"/><text class="st2"><tspan x="33" y="74.5">#</tspan><tspan class="st3">group_id</tspan><tspan x="22" y="90.5">#examiner_id</tspan><tspan x="25" y="106.5">group_name</tspan><tspan x="14" y="122.5">group_profile_url</tspan><tspan x="27" y="138.5">group_desc</tspan></text></g></g><g transform="translate(1224,72)" id="table5"><g><path stroke="#2d85c1" d="M0,0L108,0L108,45.9L0,45.9L0,0z" fill="#3498db"/><text class="st1"><tspan x="18" y="26.9">Identification</tspan></text></g><g><path stroke="#2d85c1" d="M0,45.9L108,45.9L108,153L0,153L0,45.9z" fill="#ffffff"/><text class="st2"><tspan x="30" y="87.5">#</tspan><tspan class="st3">user_id</tspan><tspan x="30" y="103.5">#</tspan><tspan class="st3">id_type</tspan><tspan x="31" y="119.5">id_value</tspan></text></g></g><g transform="translate(1374,371)" id="table6"><g><path stroke="#2d85c1" d="M0,0L108.1,0L108.1,37.2L0,37.2L0,0z" fill="#3498db"/><text class="st1"><tspan x="39" y="22.6">email</tspan></text></g><g><path stroke="#2d85c1" d="M0,37.2L108.1,37.2L108.1,124L0,124L0,37.2z" fill="#ffffff"/><text class="st2"><tspan x="30" y="68.6">#</tspan><tspan class="st3">user_id</tspan><tspan x="21" y="84.6">main_email</tspan><tspan x="26" y="100.6">opt_email</tspan></text></g></g><g transform="translate(1373,72)" id="table7"><g><path stroke="#2d85c1" d="M0,0L113,0L113,43.8L0,43.8L0,0z" fill="#3498db"/><text class="st1"><tspan x="34" y="25.9">address</tspan></text></g><g><path stroke="#2d85c1" d="M0,43.8L113,43.8L113,153.8L0,153.8L0,43.8z" fill="#ffffff"/><text class="st2"><tspan x="32" y="62.8">#</tspan><tspan class="st3">user_id</tspan><tspan x="26" y="78.8">add_line_1</tspan><tspan x="37" y="94.8">district</tspan><tspan x="35" y="110.8">country</tspan><tspan x="46" y="126.8">city</tspan><tspan x="42" y="142.8">state</tspan></text></g></g><g transform="translate(1221,266)" id="table8"><g><path stroke="#2d85c1" d="M0,0L132,0L132,33.6L0,33.6L0,0z" fill="#3498db"/><text class="st1"><tspan x="47" y="20.8">gender</tspan></text></g><g><path stroke="#2d85c1" d="M0,33.6L132,33.6L132,112L0,112L0,33.6z" fill="#ffffff"/><text class="st2"><tspan x="35" y="68.8">#</tspan><tspan class="st3">gender_id</tspan><tspan x="27" y="84.8">gender_name</tspan></text></g></g><g transform="translate(1982,79)" id="table9"><g><path stroke="#2d85c1" d="M0,0L124.1,0L124.1,41.1L0,41.1L0,0z" fill="#3498db"/><text class="st1"><tspan x="52" y="24.6">role</tspan></text></g><g><path stroke="#2d85c1" d="M0,41.1L124.1,41.1L124.1,137L0,137L0,41.1z" fill="#ffffff"/><text class="st2"><tspan x="40" y="77.1">#</tspan><tspan class="st3">role_id</tspan><tspan x="32" y="93.1">role_name</tspan><tspan x="34" y="109.1">role_desc</tspan></text></g></g><g transform="translate(1925,147.5)" id="shape10"><path stroke="#000000" d="M0,0L57,0" fill="none"/><path stroke="#000000" stroke-width="1" d="M4,-4L4,4M8,-4L8,4" stroke-linecap="round" stroke-linejoin="round" fill="none"/><path stroke="#000000" stroke-width="1" d="M53,4L53,-4M49,4L49,-4" stroke-linecap="round" stroke-linejoin="round" fill="none"/></g><path stroke="#000000" transform="translate(1856.5,216)" d="M0,0L0,47L-167.5,47" id="shape11" fill="none"/><g transform="translate(1803,246)" id="shape12"><text class="st2"><tspan x="27" y="11">will</tspan></text></g><path stroke="#000000" transform="translate(1622,60)" d="M0,0L236,0" id="shape13" fill="none"/><path stroke="#000000" transform="matrix(0,1,-1,0,1621.5,60)" d="M0,0L19,0" id="shape14" fill="none"/><path stroke="#000000" transform="matrix(0,1,-1,0,1856.5,60)" d="M0,0L19,0" id="shape15" fill="none"/><g transform="translate(1719,41)" id="shape16"><text class="st2"><tspan x="19" y="11">will</tspan></text></g><g transform="translate(1486,148.9)" id="shape17"><path stroke="#000000" d="M8,-0L67,-0.4" fill="none"/><path stroke="#000000" stroke-width="1" d="M0,4L8,-0L-0,-4M8,-0L0,0M12,-4.1L12,3.9" stroke-linecap="round" stroke-linejoin="round" fill="none"/></g><g transform="translate(1504,126)" id="shape18"><text class="st2"><tspan x="14" y="14.8">has</tspan></text></g><path stroke="#000000" transform="translate(1429,254)" d="M0,0L92,0L92,68L124,68" id="shape19" fill="none"/><g transform="translate(1431,290.25)" id="shape20"><text class="st2"><tspan x="14" y="14.8">has</tspan></text></g><g transform="translate(1429.5,225.8)" id="shape21"><path stroke="#000000" d="M-0.1,8L-0.5,28.2" fill="none"/><path stroke="#000000" stroke-width="1" d="M-4,-0.1L-0.1,8L4,.1M-0.1,8L0,0M3.8,12.1L-4.2,11.9" stroke-linecap="round" stroke-linejoin="round" fill="none"/></g><g transform="translate(1428.05,371)" id="shape22"><path stroke="#000000" d="M.2,-8L1,-49" fill="none"/><path stroke="#000000" stroke-width="1" d="M4,.1L.2,-8L-4,-0.1M.2,-8L0,0M-3.8,-12.1L4.2,-11.9" stroke-linecap="round" stroke-linejoin="round" fill="none"/></g><path stroke="#000000" transform="translate(1353,322)" d="M0,0L76,0" id="shape23" fill="none"/><g transform="translate(1096.5,90.25)" id="table24"><g><path stroke="#2d85c1" d="M0,0L113,0L113,35L0,35L0,0z" fill="#3498db"/><text class="st1"><tspan x="20" y="21.5">identity_type</tspan></text></g><g><path stroke="#2d85c1" d="M0,35L113,35L113,116.5L0,116.5L0,35z" fill="#ffffff"/><text class="st2"><tspan x="32" y="71.7">#</tspan><tspan class="st3">id_type</tspan><tspan x="32" y="87.7">id_name</tspan></text></g></g><path stroke="#000000" transform="translate(1209.5,148.5)" d="M0,0L14.5,0" id="shape25" fill="none"/><path stroke="#000000" transform="matrix(0,1,-1,0,1509,51)" d="M0,0L98,0" id="shape26" fill="none"/><path stroke="#000000" transform="translate(1278,51)" d="M0,0L229.7,0" id="shape27" fill="none"/><g transform="translate(1278,72)" id="shape28"><path stroke="#000000" d="M0,-8L0,-21" fill="none"/><path stroke="#000000" stroke-width="1" d="M4,0L0,-8L-4,0M0,-8L0,0M-4,-12L4,-12" stroke-linecap="round" stroke-linejoin="round" fill="none"/></g><path stroke="#000000" transform="translate(1278,243)" d="M0,0L113,0L113,78" id="shape29" fill="none"/><g transform="translate(1278,225)" id="shape30"><path stroke="#000000" d="M0,8L0,18" fill="none"/><path stroke="#000000" stroke-width="1" d="M-4,0L0,8L4,0M0,8L0,0M4,12L-4,12" stroke-linecap="round" stroke-linejoin="round" fill="none"/></g><path stroke="#000000" transform="translate(1690,148.5)" d="M0,0L45,0L45,124.5" id="shape31" fill="none"/><path stroke="#000000" transform="translate(1735,273)" d="M0,0L56.5,0L56.5,12.3" id="shape32" fill="none"/><g transform="translate(1690,130)" id="shape33"><text class="st2"><tspan x="4" y="10.5">makes</tspan></text></g><g transform="translate(1553,428)" id="table34"><g><path stroke="#2d85c1" d="M0,0L133,0L133,34.5L0,34.5L0,0z" fill="#3498db"/><text class="st1"><tspan x="24" y="21.3">group_member</tspan></text></g><g><path stroke="#2d85c1" d="M0,34.5L133,34.5L133,115L0,115L0,34.5z" fill="#ffffff"/><text class="st2"><tspan x="39" y="62.8">#</tspan><tspan class="st3">group_id</tspan><tspan x="28" y="78.8">#examiner_id</tspan><tspan x="42" y="94.8">#</tspan><tspan class="st3">stud_id</tspan></text></g></g><path stroke="#000000" transform="translate(1731,485)" d="M0,0L60.5,0L60.5,-37" id="shape35" fill="none"/><g transform="translate(1686,485.5)" id="shape36"><path stroke="#000000" d="M8,-0.1L45,-0.5" fill="none"/><path stroke="#000000" stroke-width="1" d="M0,4L8,-0.1L-0,-4M8,-0.1L0,0M12,-4.1L12,3.9" stroke-linecap="round" stroke-linejoin="round" fill="none"/></g><g transform="translate(1755,455)" id="shape37"><text class="st2"><tspan x="11" y="15.5">has</tspan></text></g><path stroke="#000000" transform="matrix(0,-1,1,0,1518,485)" d="M0,0L162,0" id="shape38" fill="none"/><g transform="translate(1553,485.5)" id="shape39"><path stroke="#000000" d="M-8,-0.1L-35,-0.5" fill="none"/><path stroke="#000000" stroke-width="1" d="M.1,-4L-8,-0.1L-0.1,4M-8,-0.1L0,0M-12.1,3.8L-11.9,-4.2" stroke-linecap="round" stroke-linejoin="round" fill="none"/></g><g transform="translate(1515.31,393.61)" id="shape40"><text class="st2"><tspan x="14.3" y="14.2">is</tspan></text></g><g transform="translate(1906.04,286.25)" id="table41"><g><path stroke="#2d85c1" d="M0,0L123.8,0L123.8,39.5L0,39.5L0,0z" fill="#3498db"/><text class="st1"><tspan x="48" y="23.8">topic</tspan></text></g><g><path stroke="#2d85c1" d="M0,39.5L123.8,39.5L123.8,131.8L0,131.8L0,39.5z" fill="#ffffff"/><text class="st2"><tspan x="36" y="65.6">#</tspan><tspan class="st3">topic_id</tspan><tspan x="34" y="81.6">#group_id</tspan><tspan x="29" y="97.6">topic_name</tspan><tspan x="31" y="113.6">topic_desc</tspan></text></g></g><g transform="translate(1906.04,352.13)" id="shape42"><path stroke="#000000" d="M-7.7,2.1L-54,14.5" fill="none"/><path stroke="#000000" stroke-width="1" d="M-1,-3.9L-7.7,2.1L1,3.9M-7.7,2.1L0,0M-10.6,7L-12.6,-0.8" stroke-linecap="round" stroke-linejoin="round" fill="none"/></g><g transform="translate(1860,327)" id="shape43"><text class="st2"><tspan x="8" y="13">has</tspan></text></g><g transform="translate(1906.04,440.5)" id="table44"><g><path stroke="#2d85c1" d="M0,0L124,0L124,47.6L0,47.6L0,0z" fill="#3498db"/><text class="st1"><tspan x="38" y="27.8">question</tspan></text></g><g><path stroke="#2d85c1" d="M0,47.6L124,47.6L124,158.5L0,158.5L0,47.6z" fill="#ffffff"/><text class="st2"><tspan x="34" y="91">#</tspan><tspan class="st3">quest_id</tspan><tspan x="36" y="107">#topic_id</tspan><tspan x="31" y="123">ques_desc</tspan></text></g></g><g transform="translate(2075,440.5)" id="table45"><g><path stroke="#2d85c1" d="M0,0L123.6,0L123.6,41.8L0,41.8L0,0z" fill="#3498db"/><text class="st1"><tspan x="38" y="24.9">q_option</tspan></text></g><g><path stroke="#2d85c1" d="M0,41.8L123.6,41.8L123.6,158.5L0,158.5L0,41.8z" fill="#ffffff"/><text class="st2"><tspan x="34" y="64.2">#</tspan><tspan class="st3">quest_id</tspan><tspan x="38" y="80.2">option_a</tspan><tspan x="38" y="96.2">option_b</tspan><tspan x="38" y="112.2">option_c</tspan><tspan x="38" y="128.2">option_d</tspan><tspan x="21" y="144.2">correct_option</tspan></text></g></g><g transform="translate(1968.02,440.5)" id="shape46"><path stroke="#000000" d="M-0,-8L-0.1,-22.5" fill="none"/><path stroke="#000000" stroke-width="1" d="M4,-0L-0,-8L-4,0M-0,-8L0,0M-4,-12L4,-12" stroke-linecap="round" stroke-linejoin="round" fill="none"/></g><g transform="translate(1979,421)" id="shape47"><text class="st2"><tspan x="8" y="11.5">has</tspan></text></g><path stroke="#000000" transform="translate(2030,519.75)" d="M0,0L45,0" id="shape48" fill="none"/><g transform="translate(2077,286.25)" id="table49"><g><path stroke="#2d85c1" d="M0,0L120.1,0L120.1,38.3L0,38.3L0,0z" fill="#3498db"/><text class="st1"><tspan x="40" y="23.2">correct</tspan></text></g><g><path stroke="#2d85c1" d="M0,38.3L120.1,38.3L120.1,127.8L0,127.8L0,38.3z" fill="#ffffff"/><text class="st2"><tspan x="36" y="79">#</tspan><tspan class="st3">stud_id</tspan><tspan x="32" y="95">#</tspan><tspan class="st3">quest_id</tspan></text></g></g><g transform="translate(2078.53,625.5)" id="table50"><g><path stroke="#2d85c1" d="M0,0L120.1,0L120.1,38.3L0,38.3L0,0z" fill="#3498db"/><text class="st1"><tspan x="43" y="23.2">wrong</tspan></text></g><g><path stroke="#2d85c1" d="M0,38.3L120.1,38.3L120.1,127.8L0,127.8L0,38.3z" fill="#ffffff"/><text class="st2"><tspan x="36" y="79">#</tspan><tspan class="st3">stud_id</tspan><tspan x="32" y="95">#</tspan><tspan class="st3">quest_id</tspan></text></g></g><path stroke="#000000" transform="matrix(-0.01,1,-1,-0.01,2137,414)" d="M0,0L26.5,0" id="shape51" fill="none"/><path stroke="#000000" transform="matrix(-0.01,1,-1,-0.01,2137.8,599)" d="M0,0L26.5,0" id="shape52" fill="none"/><g transform="translate(2135,417)" id="shape53"><text class="st2"><tspan x="13" y="13.5">will be</tspan></text></g><g transform="translate(2134,602.5)" id="shape54"><text class="st2"><tspan x="13" y="13.5">will be</tspan></text></g><g transform="translate(1553,579)" id="table55"><g><path stroke="#2d85c1" d="M0,0L135.4,0L135.4,43.2L0,43.2L0,0z" fill="#3498db"/><text class="st1"><tspan x="35" y="25.6">test_record</tspan></text></g><g><path stroke="#2d85c1" d="M0,43.2L135.4,43.2L135.4,144L0,144L0,43.2z" fill="#ffffff"/><text class="st2"><tspan x="43" y="65.6">#</tspan><tspan class="st3">stud_id</tspan><tspan x="40" y="81.6">#</tspan><tspan class="st3">group_id</tspan><tspan x="42" y="97.6">#</tspan><tspan class="st3">topic_id</tspan><tspan x="30" y="113.6">#correct_ans</tspan><tspan x="30" y="129.6">#max_marks</tspan></text></g></g><path stroke="#000000" transform="translate(1690,322)" d="M0,0L15,0L15,329" id="shape56" fill="none"/><g transform="translate(1688.36,651)" id="shape57"><path stroke="#000000" d="M8,0L16.6,0" fill="none"/><path stroke="#000000" stroke-width="1" d="M0,4L8,0L0,-4M8,0L0,0M12,-4L12,4" stroke-linecap="round" stroke-linejoin="round" fill="none"/></g><g transform="translate(1721,566)" id="shape58"><text class="st2"><tspan x="16" y="18">has</tspan></text></g><path stroke="#000000" transform="translate(1287,255)" d="M0,0L222.2,0" id="shape59" fill="none"/><path stroke="#000000" transform="matrix(0,1,-1,0,1287,255)" d="M0,0L11,0" id="shape60" fill="none"/><path stroke="#000000" transform="matrix(0,-1,1,0,1509.2,255)" d="M0,0L106.1,0" id="shape61" fill="none"/><g transform="translate(1476,369)" id="shape62"><path stroke="#000000" d="M.2,-8L2.5,-115" fill="none"/><path stroke="#000000" stroke-width="1" d="M4,.1L.2,-8L-4,-0.1M.2,-8L0,0M-3.7,-12.1L4.3,-11.9" stroke-linecap="round" stroke-linejoin="round" fill="none"/></g><path stroke="#000000" transform="translate(1622,230)" d="M0,0L515,0L515,56.3" id="shape63" fill="none"/><path stroke="#000000" transform="matrix(0.07,-1,1,0.07,1621,244)" d="M0,0L14,0" id="shape64" fill="none"/></g></svg>